# MagicaVoxel @ Ephtracy

# group
o 

# material
mtllib TankFactoryUpDoor.mtl
usemtl palette

# normals
vn -1 0 0
vn 1 0 0
vn 0 0 1
vn 0 0 -1
vn 0 -1 0
vn 0 1 0

# texcoords
vt 0.0214844 0.5
vt 0.982422 0.5
vt 0.990234 0.5

# verts
v 1.7 3.5 -3.7
v 1.7 3.5 -3.8
v 1.7 3.7 -3.7
v 1.7 3.7 -3.8
v 1.7 4 -3.7
v 1.7 4 -3.8
v 1.7 5 -3.7
v 1.7 5 -3.8
v 6.5 3.5 -3.7
v 6.5 3.5 -3.8
v 6.5 3.8 -3.7
v 6.5 3.8 -3.8
v 6.5 4 -3.7
v 6.5 4 -3.8
v 6.5 5 -3.7
v 6.5 5 -3.8
v 1.7 3.5 -3.7
v 1.7 3.7 -3.7
v 1.7 4 -3.7
v 1.7 5 -3.7
v 1.8 3.6 -3.7
v 1.8 3.7 -3.7
v 1.9 3.5 -3.7
v 1.9 3.6 -3.7
v 2.3 3.9 -3.7
v 2.3 4 -3.7
v 2.4 3.8 -3.7
v 2.4 3.9 -3.7
v 2.5 3.7 -3.7
v 2.5 3.8 -3.7
v 2.6 3.6 -3.7
v 2.6 3.7 -3.7
v 2.7 3.5 -3.7
v 2.7 3.6 -3.7
v 3.1 3.9 -3.7
v 3.1 4 -3.7
v 3.2 3.8 -3.7
v 3.2 3.9 -3.7
v 3.3 3.7 -3.7
v 3.3 3.8 -3.7
v 3.4 3.6 -3.7
v 3.4 3.7 -3.7
v 3.5 3.5 -3.7
v 3.5 3.6 -3.7
v 3.9 3.9 -3.7
v 3.9 4 -3.7
v 4 3.8 -3.7
v 4 3.9 -3.7
v 4.1 3.7 -3.7
v 4.1 3.8 -3.7
v 4.2 3.6 -3.7
v 4.2 3.7 -3.7
v 4.3 3.5 -3.7
v 4.3 3.6 -3.7
v 4.7 3.9 -3.7
v 4.7 4 -3.7
v 4.8 3.8 -3.7
v 4.8 3.9 -3.7
v 4.9 3.7 -3.7
v 4.9 3.8 -3.7
v 5 3.6 -3.7
v 5 3.7 -3.7
v 5.1 3.5 -3.7
v 5.1 3.6 -3.7
v 5.5 3.9 -3.7
v 5.5 4 -3.7
v 5.6 3.8 -3.7
v 5.6 3.9 -3.7
v 5.7 3.7 -3.7
v 5.7 3.8 -3.7
v 5.8 3.6 -3.7
v 5.8 3.7 -3.7
v 5.9 3.5 -3.7
v 5.9 3.6 -3.7
v 6.3 3.9 -3.7
v 6.3 4 -3.7
v 6.4 3.8 -3.7
v 6.4 3.9 -3.7
v 6.5 3.5 -3.7
v 6.5 3.8 -3.7
v 6.5 4 -3.7
v 6.5 5 -3.7
v 1.7 3.5 -3.8
v 1.7 3.7 -3.8
v 1.7 4 -3.8
v 1.7 5 -3.8
v 1.8 3.6 -3.8
v 1.8 3.7 -3.8
v 1.9 3.5 -3.8
v 1.9 3.6 -3.8
v 2.3 3.9 -3.8
v 2.3 4 -3.8
v 2.4 3.8 -3.8
v 2.4 3.9 -3.8
v 2.5 3.7 -3.8
v 2.5 3.8 -3.8
v 2.6 3.6 -3.8
v 2.6 3.7 -3.8
v 2.7 3.5 -3.8
v 2.7 3.6 -3.8
v 3.1 3.9 -3.8
v 3.1 4 -3.8
v 3.2 3.8 -3.8
v 3.2 3.9 -3.8
v 3.3 3.7 -3.8
v 3.3 3.8 -3.8
v 3.4 3.6 -3.8
v 3.4 3.7 -3.8
v 3.5 3.5 -3.8
v 3.5 3.6 -3.8
v 3.9 3.9 -3.8
v 3.9 4 -3.8
v 4 3.8 -3.8
v 4 3.9 -3.8
v 4.1 3.7 -3.8
v 4.1 3.8 -3.8
v 4.2 3.6 -3.8
v 4.2 3.7 -3.8
v 4.3 3.5 -3.8
v 4.3 3.6 -3.8
v 4.7 3.9 -3.8
v 4.7 4 -3.8
v 4.8 3.8 -3.8
v 4.8 3.9 -3.8
v 4.9 3.7 -3.8
v 4.9 3.8 -3.8
v 5 3.6 -3.8
v 5 3.7 -3.8
v 5.1 3.5 -3.8
v 5.1 3.6 -3.8
v 5.5 3.9 -3.8
v 5.5 4 -3.8
v 5.6 3.8 -3.8
v 5.6 3.9 -3.8
v 5.7 3.7 -3.8
v 5.7 3.8 -3.8
v 5.8 3.6 -3.8
v 5.8 3.7 -3.8
v 5.9 3.5 -3.8
v 5.9 3.6 -3.8
v 6.3 3.9 -3.8
v 6.3 4 -3.8
v 6.4 3.8 -3.8
v 6.4 3.9 -3.8
v 6.5 3.5 -3.8
v 6.5 3.8 -3.8
v 6.5 4 -3.8
v 6.5 5 -3.8
v 1.7 3.5 -3.7
v 1.9 3.5 -3.7
v 2.7 3.5 -3.7
v 3.5 3.5 -3.7
v 4.3 3.5 -3.7
v 5.1 3.5 -3.7
v 5.9 3.5 -3.7
v 6.5 3.5 -3.7
v 1.7 3.5 -3.8
v 1.9 3.5 -3.8
v 2.7 3.5 -3.8
v 3.5 3.5 -3.8
v 4.3 3.5 -3.8
v 5.1 3.5 -3.8
v 5.9 3.5 -3.8
v 6.5 3.5 -3.8
v 1.7 5 -3.7
v 6.5 5 -3.7
v 1.7 5 -3.8
v 6.5 5 -3.8

# faces
f 3/1/1 2/1/1 1/1/1
f 4/1/1 2/1/1 3/1/1
f 5/3/1 4/3/1 3/3/1
f 6/3/1 4/3/1 5/3/1
f 7/2/1 6/2/1 5/2/1
f 8/2/1 6/2/1 7/2/1
f 9/1/2 10/1/2 11/1/2
f 11/1/2 10/1/2 12/1/2
f 11/3/2 12/3/2 13/3/2
f 13/3/2 12/3/2 14/3/2
f 13/2/2 14/2/2 15/2/2
f 15/2/2 14/2/2 16/2/2
f 21/1/3 18/1/3 17/1/3
f 22/3/3 19/3/3 18/3/3
f 22/1/3 18/1/3 21/1/3
f 23/1/3 21/1/3 17/1/3
f 24/3/3 22/3/3 21/3/3
f 24/1/3 21/1/3 23/1/3
f 25/3/3 19/3/3 22/3/3
f 25/3/3 22/3/3 24/3/3
f 25/3/3 24/3/3 23/3/3
f 26/2/3 20/2/3 19/2/3
f 26/3/3 19/3/3 25/3/3
f 27/3/3 25/3/3 23/3/3
f 28/1/3 26/1/3 25/1/3
f 28/3/3 25/3/3 27/3/3
f 29/3/3 27/3/3 23/3/3
f 30/1/3 28/1/3 27/1/3
f 30/3/3 27/3/3 29/3/3
f 31/3/3 29/3/3 23/3/3
f 32/1/3 30/1/3 29/1/3
f 32/3/3 29/3/3 31/3/3
f 33/3/3 31/3/3 23/3/3
f 34/1/3 32/1/3 31/1/3
f 34/3/3 31/3/3 33/3/3
f 35/1/3 26/1/3 28/1/3
f 35/1/3 32/1/3 34/1/3
f 35/1/3 34/1/3 33/1/3
f 35/1/3 28/1/3 30/1/3
f 35/1/3 30/1/3 32/1/3
f 36/2/3 20/2/3 26/2/3
f 36/1/3 26/1/3 35/1/3
f 37/1/3 35/1/3 33/1/3
f 38/3/3 36/3/3 35/3/3
f 38/1/3 35/1/3 37/1/3
f 39/1/3 37/1/3 33/1/3
f 40/3/3 38/3/3 37/3/3
f 40/1/3 37/1/3 39/1/3
f 41/1/3 39/1/3 33/1/3
f 42/3/3 40/3/3 39/3/3
f 42/1/3 39/1/3 41/1/3
f 43/1/3 41/1/3 33/1/3
f 44/3/3 42/3/3 41/3/3
f 44/1/3 41/1/3 43/1/3
f 45/3/3 36/3/3 38/3/3
f 45/3/3 42/3/3 44/3/3
f 45/3/3 44/3/3 43/3/3
f 45/3/3 38/3/3 40/3/3
f 45/3/3 40/3/3 42/3/3
f 46/2/3 20/2/3 36/2/3
f 46/3/3 36/3/3 45/3/3
f 47/3/3 45/3/3 43/3/3
f 48/1/3 46/1/3 45/1/3
f 48/3/3 45/3/3 47/3/3
f 49/3/3 47/3/3 43/3/3
f 50/1/3 48/1/3 47/1/3
f 50/3/3 47/3/3 49/3/3
f 51/3/3 49/3/3 43/3/3
f 52/1/3 50/1/3 49/1/3
f 52/3/3 49/3/3 51/3/3
f 53/3/3 51/3/3 43/3/3
f 54/1/3 52/1/3 51/1/3
f 54/3/3 51/3/3 53/3/3
f 55/1/3 46/1/3 48/1/3
f 55/1/3 52/1/3 54/1/3
f 55/1/3 54/1/3 53/1/3
f 55/1/3 48/1/3 50/1/3
f 55/1/3 50/1/3 52/1/3
f 56/2/3 20/2/3 46/2/3
f 56/1/3 46/1/3 55/1/3
f 57/1/3 55/1/3 53/1/3
f 58/3/3 56/3/3 55/3/3
f 58/1/3 55/1/3 57/1/3
f 59/1/3 57/1/3 53/1/3
f 60/3/3 58/3/3 57/3/3
f 60/1/3 57/1/3 59/1/3
f 61/1/3 59/1/3 53/1/3
f 62/3/3 60/3/3 59/3/3
f 62/1/3 59/1/3 61/1/3
f 63/1/3 61/1/3 53/1/3
f 64/3/3 62/3/3 61/3/3
f 64/1/3 61/1/3 63/1/3
f 65/3/3 56/3/3 58/3/3
f 65/3/3 62/3/3 64/3/3
f 65/3/3 64/3/3 63/3/3
f 65/3/3 58/3/3 60/3/3
f 65/3/3 60/3/3 62/3/3
f 66/2/3 20/2/3 56/2/3
f 66/3/3 56/3/3 65/3/3
f 67/3/3 65/3/3 63/3/3
f 68/1/3 66/1/3 65/1/3
f 68/3/3 65/3/3 67/3/3
f 69/3/3 67/3/3 63/3/3
f 70/1/3 68/1/3 67/1/3
f 70/3/3 67/3/3 69/3/3
f 71/3/3 69/3/3 63/3/3
f 72/1/3 70/1/3 69/1/3
f 72/3/3 69/3/3 71/3/3
f 73/3/3 71/3/3 63/3/3
f 74/1/3 72/1/3 71/1/3
f 74/3/3 71/3/3 73/3/3
f 75/1/3 66/1/3 68/1/3
f 75/1/3 72/1/3 74/1/3
f 75/1/3 74/1/3 73/1/3
f 75/1/3 68/1/3 70/1/3
f 75/1/3 70/1/3 72/1/3
f 76/2/3 20/2/3 66/2/3
f 76/1/3 66/1/3 75/1/3
f 77/1/3 75/1/3 73/1/3
f 78/3/3 76/3/3 75/3/3
f 78/1/3 75/1/3 77/1/3
f 79/1/3 77/1/3 73/1/3
f 80/3/3 78/3/3 77/3/3
f 80/1/3 77/1/3 79/1/3
f 81/2/3 20/2/3 76/2/3
f 81/3/3 78/3/3 80/3/3
f 81/3/3 76/3/3 78/3/3
f 82/2/3 20/2/3 81/2/3
f 83/1/4 84/1/4 87/1/4
f 84/3/4 85/3/4 88/3/4
f 87/1/4 84/1/4 88/1/4
f 83/1/4 87/1/4 89/1/4
f 87/3/4 88/3/4 90/3/4
f 89/1/4 87/1/4 90/1/4
f 88/3/4 85/3/4 91/3/4
f 90/3/4 88/3/4 91/3/4
f 89/3/4 90/3/4 91/3/4
f 85/2/4 86/2/4 92/2/4
f 91/3/4 85/3/4 92/3/4
f 89/3/4 91/3/4 93/3/4
f 91/1/4 92/1/4 94/1/4
f 93/3/4 91/3/4 94/3/4
f 89/3/4 93/3/4 95/3/4
f 93/1/4 94/1/4 96/1/4
f 95/3/4 93/3/4 96/3/4
f 89/3/4 95/3/4 97/3/4
f 95/1/4 96/1/4 98/1/4
f 97/3/4 95/3/4 98/3/4
f 89/3/4 97/3/4 99/3/4
f 97/1/4 98/1/4 100/1/4
f 99/3/4 97/3/4 100/3/4
f 94/1/4 92/1/4 101/1/4
f 100/1/4 98/1/4 101/1/4
f 99/1/4 100/1/4 101/1/4
f 96/1/4 94/1/4 101/1/4
f 98/1/4 96/1/4 101/1/4
f 92/2/4 86/2/4 102/2/4
f 101/1/4 92/1/4 102/1/4
f 99/1/4 101/1/4 103/1/4
f 101/3/4 102/3/4 104/3/4
f 103/1/4 101/1/4 104/1/4
f 99/1/4 103/1/4 105/1/4
f 103/3/4 104/3/4 106/3/4
f 105/1/4 103/1/4 106/1/4
f 99/1/4 105/1/4 107/1/4
f 105/3/4 106/3/4 108/3/4
f 107/1/4 105/1/4 108/1/4
f 99/1/4 107/1/4 109/1/4
f 107/3/4 108/3/4 110/3/4
f 109/1/4 107/1/4 110/1/4
f 104/3/4 102/3/4 111/3/4
f 110/3/4 108/3/4 111/3/4
f 109/3/4 110/3/4 111/3/4
f 106/3/4 104/3/4 111/3/4
f 108/3/4 106/3/4 111/3/4
f 102/2/4 86/2/4 112/2/4
f 111/3/4 102/3/4 112/3/4
f 109/3/4 111/3/4 113/3/4
f 111/1/4 112/1/4 114/1/4
f 113/3/4 111/3/4 114/3/4
f 109/3/4 113/3/4 115/3/4
f 113/1/4 114/1/4 116/1/4
f 115/3/4 113/3/4 116/3/4
f 109/3/4 115/3/4 117/3/4
f 115/1/4 116/1/4 118/1/4
f 117/3/4 115/3/4 118/3/4
f 109/3/4 117/3/4 119/3/4
f 117/1/4 118/1/4 120/1/4
f 119/3/4 117/3/4 120/3/4
f 114/1/4 112/1/4 121/1/4
f 120/1/4 118/1/4 121/1/4
f 119/1/4 120/1/4 121/1/4
f 116/1/4 114/1/4 121/1/4
f 118/1/4 116/1/4 121/1/4
f 112/2/4 86/2/4 122/2/4
f 121/1/4 112/1/4 122/1/4
f 119/1/4 121/1/4 123/1/4
f 121/3/4 122/3/4 124/3/4
f 123/1/4 121/1/4 124/1/4
f 119/1/4 123/1/4 125/1/4
f 123/3/4 124/3/4 126/3/4
f 125/1/4 123/1/4 126/1/4
f 119/1/4 125/1/4 127/1/4
f 125/3/4 126/3/4 128/3/4
f 127/1/4 125/1/4 128/1/4
f 119/1/4 127/1/4 129/1/4
f 127/3/4 128/3/4 130/3/4
f 129/1/4 127/1/4 130/1/4
f 124/3/4 122/3/4 131/3/4
f 130/3/4 128/3/4 131/3/4
f 129/3/4 130/3/4 131/3/4
f 126/3/4 124/3/4 131/3/4
f 128/3/4 126/3/4 131/3/4
f 122/2/4 86/2/4 132/2/4
f 131/3/4 122/3/4 132/3/4
f 129/3/4 131/3/4 133/3/4
f 131/1/4 132/1/4 134/1/4
f 133/3/4 131/3/4 134/3/4
f 129/3/4 133/3/4 135/3/4
f 133/1/4 134/1/4 136/1/4
f 135/3/4 133/3/4 136/3/4
f 129/3/4 135/3/4 137/3/4
f 135/1/4 136/1/4 138/1/4
f 137/3/4 135/3/4 138/3/4
f 129/3/4 137/3/4 139/3/4
f 137/1/4 138/1/4 140/1/4
f 139/3/4 137/3/4 140/3/4
f 134/1/4 132/1/4 141/1/4
f 140/1/4 138/1/4 141/1/4
f 139/1/4 140/1/4 141/1/4
f 136/1/4 134/1/4 141/1/4
f 138/1/4 136/1/4 141/1/4
f 132/2/4 86/2/4 142/2/4
f 141/1/4 132/1/4 142/1/4
f 139/1/4 141/1/4 143/1/4
f 141/3/4 142/3/4 144/3/4
f 143/1/4 141/1/4 144/1/4
f 139/1/4 143/1/4 145/1/4
f 143/3/4 144/3/4 146/3/4
f 145/1/4 143/1/4 146/1/4
f 142/2/4 86/2/4 147/2/4
f 146/3/4 144/3/4 147/3/4
f 144/3/4 142/3/4 147/3/4
f 147/2/4 86/2/4 148/2/4
f 157/1/5 150/1/5 149/1/5
f 158/3/5 151/3/5 150/3/5
f 158/1/5 150/1/5 157/1/5
f 159/1/5 152/1/5 151/1/5
f 159/3/5 151/3/5 158/3/5
f 160/3/5 153/3/5 152/3/5
f 160/1/5 152/1/5 159/1/5
f 161/1/5 154/1/5 153/1/5
f 161/3/5 153/3/5 160/3/5
f 162/3/5 155/3/5 154/3/5
f 162/1/5 154/1/5 161/1/5
f 163/1/5 156/1/5 155/1/5
f 163/3/5 155/3/5 162/3/5
f 164/1/5 156/1/5 163/1/5
f 165/2/6 166/2/6 167/2/6
f 167/2/6 166/2/6 168/2/6
