# MagicaVoxel @ Ephtracy

# group
o 

# material
mtllib RocketLauncherTower.mtl
usemtl palette

# normals
vn -1 0 0
vn 1 0 0
vn 0 0 1
vn 0 0 -1
vn 0 -1 0
vn 0 1 0

# texcoords
vt 0.185547 0.5
vt 0.958984 0.5

# verts
v 0.9 2.9 -2.5
v 0.9 2.9 -2.8
v 0.9 2.9 -3.2
v 0.9 2.9 -3.5
v 0.9 3.2 -2.5
v 0.9 3.2 -2.8
v 0.9 3.2 -3.2
v 0.9 3.2 -3.5
v 1 2.8 -2.4
v 1 2.8 -2.9
v 1 2.8 -3.1
v 1 2.8 -3.6
v 1 2.9 -2.5
v 1 2.9 -2.8
v 1 2.9 -3.2
v 1 2.9 -3.5
v 1 3.2 -2.5
v 1 3.2 -2.8
v 1 3.2 -3.2
v 1 3.2 -3.5
v 1 3.3 -2.4
v 1 3.3 -2.9
v 1 3.3 -3.1
v 1 3.3 -3.6
v 1.1 2.9 -2.3
v 1.1 2.9 -2.4
v 1.1 2.9 -3.6
v 1.1 2.9 -3.7
v 1.1 3 -2.9
v 1.1 3 -3.1
v 1.1 3.1 -2.9
v 1.1 3.1 -3.1
v 1.1 3.2 -2.3
v 1.1 3.2 -2.4
v 1.1 3.2 -3.6
v 1.1 3.2 -3.7
v 1.2 2.9 -2.9
v 1.2 2.9 -3.1
v 1.2 3 -2.9
v 1.2 3 -3.1
v 1.2 3.1 -2.9
v 1.2 3.1 -3.1
v 1.2 3.2 -2.9
v 1.2 3.2 -3.1
v 2.5 2.9 -2.9
v 2.5 2.9 -3.1
v 2.5 3 -2.9
v 2.5 3 -3.1
v 2.5 3.1 -2.9
v 2.5 3.1 -3.1
v 2.5 3.2 -2.9
v 2.5 3.2 -3.1
v 2.6 2.9 -2.3
v 2.6 2.9 -2.4
v 2.6 2.9 -3.6
v 2.6 2.9 -3.7
v 2.6 3 -2.9
v 2.6 3 -3.1
v 2.6 3.1 -2.9
v 2.6 3.1 -3.1
v 2.6 3.2 -2.3
v 2.6 3.2 -2.4
v 2.6 3.2 -3.6
v 2.6 3.2 -3.7
v 2.7 2.8 -2.4
v 2.7 2.8 -2.9
v 2.7 2.8 -3.1
v 2.7 2.8 -3.6
v 2.7 2.9 -2.5
v 2.7 2.9 -2.8
v 2.7 2.9 -3.2
v 2.7 2.9 -3.5
v 2.7 3 -2.6
v 2.7 3 -2.7
v 2.7 3 -3.3
v 2.7 3 -3.4
v 2.7 3.1 -2.6
v 2.7 3.1 -2.7
v 2.7 3.1 -3.3
v 2.7 3.1 -3.4
v 2.7 3.2 -2.5
v 2.7 3.2 -2.8
v 2.7 3.2 -3.2
v 2.7 3.2 -3.5
v 2.7 3.3 -2.4
v 2.7 3.3 -2.9
v 2.7 3.3 -3.1
v 2.7 3.3 -3.6
v 2.8 2.9 -2.5
v 2.8 2.9 -2.8
v 2.8 2.9 -3.2
v 2.8 2.9 -3.5
v 2.8 3 -2.6
v 2.8 3 -2.7
v 2.8 3 -3.3
v 2.8 3 -3.4
v 2.8 3.1 -2.6
v 2.8 3.1 -2.7
v 2.8 3.1 -3.3
v 2.8 3.1 -3.4
v 2.8 3.2 -2.5
v 2.8 3.2 -2.8
v 2.8 3.2 -3.2
v 2.8 3.2 -3.5
v 1.1 2.9 -2.3
v 1.1 3.2 -2.3
v 2.6 2.9 -2.3
v 2.6 3.2 -2.3
v 1 2.8 -2.4
v 1 3.3 -2.4
v 1.1 2.9 -2.4
v 1.1 3.2 -2.4
v 2.6 2.9 -2.4
v 2.6 3.2 -2.4
v 2.7 2.8 -2.4
v 2.7 3.3 -2.4
v 0.9 2.9 -2.5
v 0.9 3.2 -2.5
v 1 2.9 -2.5
v 1 3.2 -2.5
v 2.7 2.9 -2.5
v 2.7 3.2 -2.5
v 2.8 2.9 -2.5
v 2.8 3.2 -2.5
v 2.7 3 -2.7
v 2.7 3.1 -2.7
v 2.8 3 -2.7
v 2.8 3.1 -2.7
v 1 2.8 -3.1
v 1 3.3 -3.1
v 1.1 3 -3.1
v 1.1 3.1 -3.1
v 1.2 2.9 -3.1
v 1.2 3 -3.1
v 1.2 3.1 -3.1
v 1.2 3.2 -3.1
v 2.5 2.9 -3.1
v 2.5 3 -3.1
v 2.5 3.1 -3.1
v 2.5 3.2 -3.1
v 2.6 3 -3.1
v 2.6 3.1 -3.1
v 2.7 2.8 -3.1
v 2.7 3.3 -3.1
v 0.9 2.9 -3.2
v 0.9 3.2 -3.2
v 1 2.9 -3.2
v 1 3.2 -3.2
v 2.7 2.9 -3.2
v 2.7 3.2 -3.2
v 2.8 2.9 -3.2
v 2.8 3.2 -3.2
v 2.7 3 -3.4
v 2.7 3.1 -3.4
v 2.8 3 -3.4
v 2.8 3.1 -3.4
v 2.7 3 -2.6
v 2.7 3.1 -2.6
v 2.8 3 -2.6
v 2.8 3.1 -2.6
v 0.9 2.9 -2.8
v 0.9 3.2 -2.8
v 1 2.9 -2.8
v 1 3.2 -2.8
v 2.7 2.9 -2.8
v 2.7 3.2 -2.8
v 2.8 2.9 -2.8
v 2.8 3.2 -2.8
v 1 2.8 -2.9
v 1 3.3 -2.9
v 1.1 3 -2.9
v 1.1 3.1 -2.9
v 1.2 2.9 -2.9
v 1.2 3 -2.9
v 1.2 3.1 -2.9
v 1.2 3.2 -2.9
v 2.5 2.9 -2.9
v 2.5 3 -2.9
v 2.5 3.1 -2.9
v 2.5 3.2 -2.9
v 2.6 3 -2.9
v 2.6 3.1 -2.9
v 2.7 2.8 -2.9
v 2.7 3.3 -2.9
v 2.7 3 -3.3
v 2.7 3.1 -3.3
v 2.8 3 -3.3
v 2.8 3.1 -3.3
v 0.9 2.9 -3.5
v 0.9 3.2 -3.5
v 1 2.9 -3.5
v 1 3.2 -3.5
v 2.7 2.9 -3.5
v 2.7 3.2 -3.5
v 2.8 2.9 -3.5
v 2.8 3.2 -3.5
v 1 2.8 -3.6
v 1 3.3 -3.6
v 1.1 2.9 -3.6
v 1.1 3.2 -3.6
v 2.6 2.9 -3.6
v 2.6 3.2 -3.6
v 2.7 2.8 -3.6
v 2.7 3.3 -3.6
v 1.1 2.9 -3.7
v 1.1 3.2 -3.7
v 2.6 2.9 -3.7
v 2.6 3.2 -3.7
v 1 2.8 -2.4
v 2.7 2.8 -2.4
v 1 2.8 -2.9
v 2.7 2.8 -2.9
v 1 2.8 -3.1
v 2.7 2.8 -3.1
v 1 2.8 -3.6
v 2.7 2.8 -3.6
v 1.1 2.9 -2.3
v 2.6 2.9 -2.3
v 1.1 2.9 -2.4
v 2.6 2.9 -2.4
v 0.9 2.9 -2.5
v 1 2.9 -2.5
v 2.7 2.9 -2.5
v 2.8 2.9 -2.5
v 0.9 2.9 -2.8
v 1 2.9 -2.8
v 2.7 2.9 -2.8
v 2.8 2.9 -2.8
v 1.2 2.9 -2.9
v 2.5 2.9 -2.9
v 1.2 2.9 -3.1
v 2.5 2.9 -3.1
v 0.9 2.9 -3.2
v 1 2.9 -3.2
v 2.7 2.9 -3.2
v 2.8 2.9 -3.2
v 0.9 2.9 -3.5
v 1 2.9 -3.5
v 2.7 2.9 -3.5
v 2.8 2.9 -3.5
v 1.1 2.9 -3.6
v 2.6 2.9 -3.6
v 1.1 2.9 -3.7
v 2.6 2.9 -3.7
v 1.1 3 -2.9
v 1.2 3 -2.9
v 2.5 3 -2.9
v 2.6 3 -2.9
v 1.1 3 -3.1
v 1.2 3 -3.1
v 2.5 3 -3.1
v 2.6 3 -3.1
v 2.7 3.1 -2.6
v 2.8 3.1 -2.6
v 2.7 3.1 -2.7
v 2.8 3.1 -2.7
v 2.7 3.1 -3.3
v 2.8 3.1 -3.3
v 2.7 3.1 -3.4
v 2.8 3.1 -3.4
v 2.7 3 -2.6
v 2.8 3 -2.6
v 2.7 3 -2.7
v 2.8 3 -2.7
v 2.7 3 -3.3
v 2.8 3 -3.3
v 2.7 3 -3.4
v 2.8 3 -3.4
v 1.1 3.1 -2.9
v 1.2 3.1 -2.9
v 2.5 3.1 -2.9
v 2.6 3.1 -2.9
v 1.1 3.1 -3.1
v 1.2 3.1 -3.1
v 2.5 3.1 -3.1
v 2.6 3.1 -3.1
v 1.1 3.2 -2.3
v 2.6 3.2 -2.3
v 1.1 3.2 -2.4
v 2.6 3.2 -2.4
v 0.9 3.2 -2.5
v 1 3.2 -2.5
v 2.7 3.2 -2.5
v 2.8 3.2 -2.5
v 0.9 3.2 -2.8
v 1 3.2 -2.8
v 2.7 3.2 -2.8
v 2.8 3.2 -2.8
v 1.2 3.2 -2.9
v 2.5 3.2 -2.9
v 1.2 3.2 -3.1
v 2.5 3.2 -3.1
v 0.9 3.2 -3.2
v 1 3.2 -3.2
v 2.7 3.2 -3.2
v 2.8 3.2 -3.2
v 0.9 3.2 -3.5
v 1 3.2 -3.5
v 2.7 3.2 -3.5
v 2.8 3.2 -3.5
v 1.1 3.2 -3.6
v 2.6 3.2 -3.6
v 1.1 3.2 -3.7
v 2.6 3.2 -3.7
v 1 3.3 -2.4
v 2.7 3.3 -2.4
v 1 3.3 -2.9
v 2.7 3.3 -2.9
v 1 3.3 -3.1
v 2.7 3.3 -3.1
v 1 3.3 -3.6
v 2.7 3.3 -3.6

# faces
f 5/2/1 2/2/1 1/2/1
f 6/2/1 2/2/1 5/2/1
f 7/2/1 4/2/1 3/2/1
f 8/2/1 4/2/1 7/2/1
f 13/1/1 10/1/1 9/1/1
f 14/1/1 10/1/1 13/1/1
f 15/1/1 12/1/1 11/1/1
f 16/1/1 12/1/1 15/1/1
f 17/1/1 13/1/1 9/1/1
f 18/1/1 10/1/1 14/1/1
f 19/1/1 15/1/1 11/1/1
f 20/1/1 12/1/1 16/1/1
f 21/1/1 17/1/1 9/1/1
f 21/1/1 18/1/1 17/1/1
f 22/1/1 10/1/1 18/1/1
f 22/1/1 18/1/1 21/1/1
f 23/1/1 20/1/1 19/1/1
f 23/1/1 19/1/1 11/1/1
f 24/1/1 12/1/1 20/1/1
f 24/1/1 20/1/1 23/1/1
f 31/1/1 30/1/1 29/1/1
f 32/1/1 30/1/1 31/1/1
f 33/1/1 26/1/1 25/1/1
f 34/1/1 26/1/1 33/1/1
f 35/1/1 28/1/1 27/1/1
f 36/1/1 28/1/1 35/1/1
f 39/1/1 38/1/1 37/1/1
f 40/1/1 38/1/1 39/1/1
f 43/1/1 42/1/1 41/1/1
f 44/1/1 42/1/1 43/1/1
f 45/1/2 46/1/2 47/1/2
f 47/1/2 46/1/2 48/1/2
f 49/1/2 50/1/2 51/1/2
f 51/1/2 50/1/2 52/1/2
f 57/1/2 58/1/2 59/1/2
f 59/1/2 58/1/2 60/1/2
f 53/1/2 54/1/2 61/1/2
f 61/1/2 54/1/2 62/1/2
f 55/1/2 56/1/2 63/1/2
f 63/1/2 56/1/2 64/1/2
f 65/1/2 66/1/2 69/1/2
f 69/1/2 66/1/2 70/1/2
f 67/1/2 68/1/2 71/1/2
f 71/1/2 68/1/2 72/1/2
f 73/1/2 74/1/2 77/1/2
f 77/1/2 74/1/2 78/1/2
f 75/1/2 76/1/2 79/1/2
f 79/1/2 76/1/2 80/1/2
f 65/1/2 69/1/2 81/1/2
f 70/1/2 66/1/2 82/1/2
f 67/1/2 71/1/2 83/1/2
f 72/1/2 68/1/2 84/1/2
f 65/1/2 81/1/2 85/1/2
f 81/1/2 82/1/2 85/1/2
f 82/1/2 66/1/2 86/1/2
f 85/1/2 82/1/2 86/1/2
f 83/1/2 84/1/2 87/1/2
f 67/1/2 83/1/2 87/1/2
f 84/1/2 68/1/2 88/1/2
f 87/1/2 84/1/2 88/1/2
f 89/2/2 90/2/2 93/2/2
f 93/2/2 90/2/2 94/2/2
f 91/2/2 92/2/2 95/2/2
f 95/2/2 92/2/2 96/2/2
f 89/2/2 93/2/2 97/2/2
f 94/2/2 90/2/2 98/2/2
f 91/2/2 95/2/2 99/2/2
f 96/2/2 92/2/2 100/2/2
f 89/2/2 97/2/2 101/2/2
f 97/2/2 98/2/2 101/2/2
f 98/2/2 90/2/2 102/2/2
f 101/2/2 98/2/2 102/2/2
f 99/2/2 100/2/2 103/2/2
f 91/2/2 99/2/2 103/2/2
f 100/2/2 92/2/2 104/2/2
f 103/2/2 100/2/2 104/2/2
f 107/1/3 106/1/3 105/1/3
f 108/1/3 106/1/3 107/1/3
f 111/1/3 110/1/3 109/1/3
f 112/1/3 110/1/3 111/1/3
f 113/1/3 111/1/3 109/1/3
f 114/1/3 110/1/3 112/1/3
f 115/1/3 113/1/3 109/1/3
f 115/1/3 114/1/3 113/1/3
f 116/1/3 110/1/3 114/1/3
f 116/1/3 114/1/3 115/1/3
f 119/2/3 118/2/3 117/2/3
f 120/2/3 118/2/3 119/2/3
f 123/2/3 122/2/3 121/2/3
f 124/2/3 122/2/3 123/2/3
f 127/2/3 126/2/3 125/2/3
f 128/2/3 126/2/3 127/2/3
f 131/1/3 130/1/3 129/1/3
f 132/1/3 130/1/3 131/1/3
f 133/1/3 131/1/3 129/1/3
f 134/1/3 131/1/3 133/1/3
f 135/1/3 130/1/3 132/1/3
f 136/1/3 130/1/3 135/1/3
f 137/1/3 133/1/3 129/1/3
f 140/1/3 130/1/3 136/1/3
f 141/1/3 138/1/3 137/1/3
f 142/1/3 140/1/3 139/1/3
f 143/1/3 141/1/3 137/1/3
f 143/1/3 142/1/3 141/1/3
f 143/1/3 137/1/3 129/1/3
f 144/1/3 140/1/3 142/1/3
f 144/1/3 142/1/3 143/1/3
f 144/1/3 130/1/3 140/1/3
f 147/2/3 146/2/3 145/2/3
f 148/2/3 146/2/3 147/2/3
f 151/2/3 150/2/3 149/2/3
f 152/2/3 150/2/3 151/2/3
f 155/2/3 154/2/3 153/2/3
f 156/2/3 154/2/3 155/2/3
f 157/2/4 158/2/4 159/2/4
f 159/2/4 158/2/4 160/2/4
f 161/2/4 162/2/4 163/2/4
f 163/2/4 162/2/4 164/2/4
f 165/2/4 166/2/4 167/2/4
f 167/2/4 166/2/4 168/2/4
f 169/1/4 170/1/4 171/1/4
f 171/1/4 170/1/4 172/1/4
f 169/1/4 171/1/4 173/1/4
f 173/1/4 171/1/4 174/1/4
f 172/1/4 170/1/4 175/1/4
f 175/1/4 170/1/4 176/1/4
f 169/1/4 173/1/4 177/1/4
f 176/1/4 170/1/4 180/1/4
f 177/1/4 178/1/4 181/1/4
f 179/1/4 180/1/4 182/1/4
f 177/1/4 181/1/4 183/1/4
f 181/1/4 182/1/4 183/1/4
f 169/1/4 177/1/4 183/1/4
f 182/1/4 180/1/4 184/1/4
f 183/1/4 182/1/4 184/1/4
f 180/1/4 170/1/4 184/1/4
f 185/2/4 186/2/4 187/2/4
f 187/2/4 186/2/4 188/2/4
f 189/2/4 190/2/4 191/2/4
f 191/2/4 190/2/4 192/2/4
f 193/2/4 194/2/4 195/2/4
f 195/2/4 194/2/4 196/2/4
f 197/1/4 198/1/4 199/1/4
f 199/1/4 198/1/4 200/1/4
f 197/1/4 199/1/4 201/1/4
f 200/1/4 198/1/4 202/1/4
f 197/1/4 201/1/4 203/1/4
f 201/1/4 202/1/4 203/1/4
f 202/1/4 198/1/4 204/1/4
f 203/1/4 202/1/4 204/1/4
f 205/1/4 206/1/4 207/1/4
f 207/1/4 206/1/4 208/1/4
f 211/1/5 210/1/5 209/1/5
f 212/1/5 210/1/5 211/1/5
f 215/1/5 214/1/5 213/1/5
f 216/1/5 214/1/5 215/1/5
f 219/1/5 218/1/5 217/1/5
f 220/1/5 218/1/5 219/1/5
f 225/2/5 222/2/5 221/2/5
f 226/2/5 222/2/5 225/2/5
f 227/2/5 224/2/5 223/2/5
f 228/2/5 224/2/5 227/2/5
f 231/1/5 230/1/5 229/1/5
f 232/1/5 230/1/5 231/1/5
f 237/2/5 234/2/5 233/2/5
f 238/2/5 234/2/5 237/2/5
f 239/2/5 236/2/5 235/2/5
f 240/2/5 236/2/5 239/2/5
f 243/1/5 242/1/5 241/1/5
f 244/1/5 242/1/5 243/1/5
f 249/1/5 246/1/5 245/1/5
f 250/1/5 246/1/5 249/1/5
f 251/1/5 248/1/5 247/1/5
f 252/1/5 248/1/5 251/1/5
f 255/2/5 254/2/5 253/2/5
f 256/2/5 254/2/5 255/2/5
f 259/2/5 258/2/5 257/2/5
f 260/2/5 258/2/5 259/2/5
f 261/2/6 262/2/6 263/2/6
f 263/2/6 262/2/6 264/2/6
f 265/2/6 266/2/6 267/2/6
f 267/2/6 266/2/6 268/2/6
f 269/1/6 270/1/6 273/1/6
f 273/1/6 270/1/6 274/1/6
f 271/1/6 272/1/6 275/1/6
f 275/1/6 272/1/6 276/1/6
f 277/1/6 278/1/6 279/1/6
f 279/1/6 278/1/6 280/1/6
f 281/2/6 282/2/6 285/2/6
f 285/2/6 282/2/6 286/2/6
f 283/2/6 284/2/6 287/2/6
f 287/2/6 284/2/6 288/2/6
f 289/1/6 290/1/6 291/1/6
f 291/1/6 290/1/6 292/1/6
f 293/2/6 294/2/6 297/2/6
f 297/2/6 294/2/6 298/2/6
f 295/2/6 296/2/6 299/2/6
f 299/2/6 296/2/6 300/2/6
f 301/1/6 302/1/6 303/1/6
f 303/1/6 302/1/6 304/1/6
f 305/1/6 306/1/6 307/1/6
f 307/1/6 306/1/6 308/1/6
f 309/1/6 310/1/6 311/1/6
f 311/1/6 310/1/6 312/1/6
