# MagicaVoxel @ Ephtracy

# group
o 

# material
mtllib Missile.mtl
usemtl palette

# normals
vn -1 0 0
vn 1 0 0
vn 0 0 1
vn 0 0 -1
vn 0 -1 0
vn 0 1 0

# texcoords
vt 0.845703 0.5
vt 0.974609 0.5
vt 0.978516 0.5

# verts
v 0.4 2.2 -0.2
v 0.4 2.2 -0.3
v 0.4 2.3 -0.2
v 0.4 2.3 -0.3
v 0.5 2.1 -0.2
v 0.5 2.1 -0.3
v 0.5 2.2 -0.1
v 0.5 2.2 -0.2
v 0.5 2.2 -0.3
v 0.5 2.2 -0.4
v 0.5 2.3 -0.1
v 0.5 2.3 -0.2
v 0.5 2.3 -0.3
v 0.5 2.3 -0.4
v 0.5 2.4 -0.2
v 0.5 2.4 -0.3
v 0.6 2.1 -0.2
v 0.6 2.1 -0.3
v 0.6 2.2 -0.1
v 0.6 2.2 -0.2
v 0.6 2.2 -0.3
v 0.6 2.2 -0.4
v 0.6 2.3 -0.1
v 0.6 2.3 -0.2
v 0.6 2.3 -0.3
v 0.6 2.3 -0.4
v 0.6 2.4 -0.2
v 0.6 2.4 -0.3
v 1.5 2.2 -0.2
v 1.5 2.2 -0.3
v 1.5 2.3 -0.2
v 1.5 2.3 -0.3
v 0.5 2.2 -0.1
v 0.5 2.3 -0.1
v 0.6 2.2 -0.1
v 0.6 2.3 -0.1
v 0.4 2.2 -0.2
v 0.4 2.3 -0.2
v 0.5 2.1 -0.2
v 0.5 2.2 -0.2
v 0.5 2.3 -0.2
v 0.5 2.4 -0.2
v 0.6 2.1 -0.2
v 0.6 2.2 -0.2
v 0.6 2.3 -0.2
v 0.6 2.4 -0.2
v 0.7 2.2 -0.2
v 0.7 2.3 -0.2
v 1.3 2.2 -0.2
v 1.3 2.3 -0.2
v 1.5 2.2 -0.2
v 1.5 2.3 -0.2
v 0.4 2.2 -0.3
v 0.4 2.3 -0.3
v 0.5 2.1 -0.3
v 0.5 2.2 -0.3
v 0.5 2.3 -0.3
v 0.5 2.4 -0.3
v 0.6 2.1 -0.3
v 0.6 2.2 -0.3
v 0.6 2.3 -0.3
v 0.6 2.4 -0.3
v 0.7 2.2 -0.3
v 0.7 2.3 -0.3
v 1.3 2.2 -0.3
v 1.3 2.3 -0.3
v 1.5 2.2 -0.3
v 1.5 2.3 -0.3
v 0.5 2.2 -0.4
v 0.5 2.3 -0.4
v 0.6 2.2 -0.4
v 0.6 2.3 -0.4
v 0.5 2.1 -0.2
v 0.6 2.1 -0.2
v 0.5 2.1 -0.3
v 0.6 2.1 -0.3
v 0.5 2.2 -0.1
v 0.6 2.2 -0.1
v 0.4 2.2 -0.2
v 0.5 2.2 -0.2
v 0.6 2.2 -0.2
v 0.7 2.2 -0.2
v 1.3 2.2 -0.2
v 1.5 2.2 -0.2
v 0.4 2.2 -0.3
v 0.5 2.2 -0.3
v 0.6 2.2 -0.3
v 0.7 2.2 -0.3
v 1.3 2.2 -0.3
v 1.5 2.2 -0.3
v 0.5 2.2 -0.4
v 0.6 2.2 -0.4
v 0.5 2.3 -0.1
v 0.6 2.3 -0.1
v 0.4 2.3 -0.2
v 0.5 2.3 -0.2
v 0.6 2.3 -0.2
v 0.7 2.3 -0.2
v 1.3 2.3 -0.2
v 1.5 2.3 -0.2
v 0.4 2.3 -0.3
v 0.5 2.3 -0.3
v 0.6 2.3 -0.3
v 0.7 2.3 -0.3
v 1.3 2.3 -0.3
v 1.5 2.3 -0.3
v 0.5 2.3 -0.4
v 0.6 2.3 -0.4
v 0.5 2.4 -0.2
v 0.6 2.4 -0.2
v 0.5 2.4 -0.3
v 0.6 2.4 -0.3

# faces
f 3/1/1 2/1/1 1/1/1
f 4/1/1 2/1/1 3/1/1
f 8/3/1 6/3/1 5/3/1
f 9/3/1 6/3/1 8/3/1
f 11/3/1 8/3/1 7/3/1
f 12/3/1 8/3/1 11/3/1
f 13/3/1 10/3/1 9/3/1
f 14/3/1 10/3/1 13/3/1
f 15/3/1 13/3/1 12/3/1
f 16/3/1 13/3/1 15/3/1
f 17/3/2 18/3/2 20/3/2
f 20/3/2 18/3/2 21/3/2
f 19/3/2 20/3/2 23/3/2
f 23/3/2 20/3/2 24/3/2
f 21/3/2 22/3/2 25/3/2
f 25/3/2 22/3/2 26/3/2
f 24/3/2 25/3/2 27/3/2
f 27/3/2 25/3/2 28/3/2
f 29/1/2 30/1/2 31/1/2
f 31/1/2 30/1/2 32/1/2
f 35/3/3 34/3/3 33/3/3
f 36/3/3 34/3/3 35/3/3
f 40/1/3 38/1/3 37/1/3
f 41/1/3 38/1/3 40/1/3
f 43/3/3 40/3/3 39/3/3
f 44/3/3 40/3/3 43/3/3
f 45/3/3 42/3/3 41/3/3
f 46/3/3 42/3/3 45/3/3
f 47/1/3 45/1/3 44/1/3
f 48/1/3 45/1/3 47/1/3
f 49/2/3 48/2/3 47/2/3
f 50/2/3 48/2/3 49/2/3
f 51/1/3 50/1/3 49/1/3
f 52/1/3 50/1/3 51/1/3
f 53/1/4 54/1/4 56/1/4
f 56/1/4 54/1/4 57/1/4
f 55/3/4 56/3/4 59/3/4
f 59/3/4 56/3/4 60/3/4
f 57/3/4 58/3/4 61/3/4
f 61/3/4 58/3/4 62/3/4
f 60/1/4 61/1/4 63/1/4
f 63/1/4 61/1/4 64/1/4
f 63/2/4 64/2/4 65/2/4
f 65/2/4 64/2/4 66/2/4
f 65/1/4 66/1/4 67/1/4
f 67/1/4 66/1/4 68/1/4
f 69/3/4 70/3/4 71/3/4
f 71/3/4 70/3/4 72/3/4
f 75/3/5 74/3/5 73/3/5
f 76/3/5 74/3/5 75/3/5
f 80/3/5 78/3/5 77/3/5
f 81/3/5 78/3/5 80/3/5
f 85/1/5 80/1/5 79/1/5
f 86/1/5 80/1/5 85/1/5
f 87/1/5 82/1/5 81/1/5
f 88/2/5 83/2/5 82/2/5
f 88/1/5 82/1/5 87/1/5
f 89/1/5 84/1/5 83/1/5
f 89/2/5 83/2/5 88/2/5
f 90/1/5 84/1/5 89/1/5
f 91/3/5 87/3/5 86/3/5
f 92/3/5 87/3/5 91/3/5
f 93/3/6 94/3/6 96/3/6
f 96/3/6 94/3/6 97/3/6
f 95/1/6 96/1/6 101/1/6
f 101/1/6 96/1/6 102/1/6
f 97/1/6 98/1/6 103/1/6
f 98/2/6 99/2/6 104/2/6
f 103/1/6 98/1/6 104/1/6
f 99/1/6 100/1/6 105/1/6
f 104/2/6 99/2/6 105/2/6
f 105/1/6 100/1/6 106/1/6
f 102/3/6 103/3/6 107/3/6
f 107/3/6 103/3/6 108/3/6
f 109/3/6 110/3/6 111/3/6
f 111/3/6 110/3/6 112/3/6
