# MagicaVoxel @ Ephtracy

# group
o 

# material
mtllib TurretCannon.mtl
usemtl palette

# normals
vn -1 0 0
vn 1 0 0
vn 0 0 1
vn 0 0 -1
vn 0 -1 0
vn 0 1 0

# texcoords
vt 0.974609 0.5
vt 0.982422 0.5

# verts
v 3.4 2.9 -2.9
v 3.4 2.9 -3.1
v 3.4 3 -2.9
v 3.4 3 -3.1
v 3.4 3.1 -2.9
v 3.4 3.1 -3.1
v 5.1 2.9 -2.9
v 5.1 2.9 -3.1
v 5.1 3.1 -2.9
v 5.1 3.1 -3.1
v 3.4 2.9 -2.9
v 3.4 3 -2.9
v 3.4 3.1 -2.9
v 3.7 3 -2.9
v 3.7 3.1 -2.9
v 5.1 2.9 -2.9
v 5.1 3.1 -2.9
v 3.4 2.9 -3.1
v 3.4 3 -3.1
v 3.4 3.1 -3.1
v 3.7 3 -3.1
v 3.7 3.1 -3.1
v 5.1 2.9 -3.1
v 5.1 3.1 -3.1
v 3.4 2.9 -2.9
v 5.1 2.9 -2.9
v 3.4 2.9 -3.1
v 5.1 2.9 -3.1
v 3.4 3.1 -2.9
v 3.7 3.1 -2.9
v 5.1 3.1 -2.9
v 3.4 3.1 -3.1
v 3.7 3.1 -3.1
v 5.1 3.1 -3.1

# faces
f 3/1/1 2/1/1 1/1/1
f 4/1/1 2/1/1 3/1/1
f 5/2/1 4/2/1 3/2/1
f 6/2/1 4/2/1 5/2/1
f 7/1/2 8/1/2 9/1/2
f 9/1/2 8/1/2 10/1/2
f 14/1/3 12/1/3 11/1/3
f 14/2/3 13/2/3 12/2/3
f 15/2/3 13/2/3 14/2/3
f 16/1/3 14/1/3 11/1/3
f 16/1/3 15/1/3 14/1/3
f 17/1/3 15/1/3 16/1/3
f 18/1/4 19/1/4 21/1/4
f 19/2/4 20/2/4 21/2/4
f 21/2/4 20/2/4 22/2/4
f 18/1/4 21/1/4 23/1/4
f 21/1/4 22/1/4 23/1/4
f 23/1/4 22/1/4 24/1/4
f 27/1/5 26/1/5 25/1/5
f 28/1/5 26/1/5 27/1/5
f 29/2/6 30/2/6 32/2/6
f 30/1/6 31/1/6 33/1/6
f 32/2/6 30/2/6 33/2/6
f 33/1/6 31/1/6 34/1/6
